<svg width="137" height="38" viewBox="0 0 137 38" fill="none" xmlns="http://www.w3.org/2000/svg">
<path d="M29.7235 2.15918H3.1153C2.2706 2.15918 1.76906 3.05668 2.16502 3.7958L10.4009 18.0766C10.744 18.6573 11.3512 19.0005 12.0111 19.0005H38.5929C39.4376 19.0005 39.9391 18.103 39.5432 17.3639L31.3337 3.08307C31.0169 2.52874 30.4098 2.15918 29.7235 2.15918Z" stroke="white" stroke-width="2.6397" stroke-miterlimit="10"/>
<path d="M29.7499 10.5273H3.1153C2.2706 10.5273 1.76906 11.4248 2.16502 12.164L10.4009 26.4447C10.744 27.0255 11.3512 27.3686 12.0111 27.3686H38.5929C39.4376 27.3686 39.9391 26.4711 39.5432 25.732L31.3337 11.4512C31.0169 10.8969 30.4098 10.5273 29.7499 10.5273Z" stroke="white" stroke-width="2.6397" stroke-miterlimit="10"/>
<path d="M29.6961 19.001H3.08797C2.24326 19.001 1.74172 19.8985 2.13767 20.6376L10.3735 34.9184C10.7167 35.4991 11.3238 35.8423 11.9838 35.8423H38.5655C39.4102 35.8423 39.9118 34.9448 39.5158 34.2057L31.3064 19.9249C30.9896 19.3705 30.3825 19.001 29.6961 19.001Z" stroke="white" stroke-width="2.6397" stroke-miterlimit="10"/>
<path d="M47.3301 13.9848V11.7146C48.0956 11.7146 48.7027 11.6882 49.1515 11.609C49.6002 11.5298 49.9434 11.3451 50.181 11.0283C50.3921 10.7379 50.5505 10.2364 50.6033 9.52368C50.6561 8.83736 50.7089 7.88705 50.7089 6.72559H53.3222V11.6882H57.7833V13.9584H47.3301V13.9848ZM53.507 30.9844C52.3719 30.9844 51.5536 30.6677 51.0785 30.0342C50.6033 29.4006 50.3657 28.5295 50.3657 27.4208V13.536H53.2958V28.5031H57.8097V30.958H53.507V30.9844Z" fill="white"/>
<path d="M65.6767 31.4072C63.9081 31.4072 62.4562 30.9849 61.3212 30.1138C60.1861 29.2427 59.3414 28.0812 58.7871 26.5766C58.2327 25.0984 57.9688 23.4089 57.9688 21.5084C57.9688 19.555 58.2591 17.8392 58.8134 16.3346C59.3942 14.8563 60.2389 13.6685 61.4004 12.7973C62.5618 11.9262 63.9873 11.5039 65.6767 11.5039C66.6798 11.5039 67.5509 11.6359 68.3164 11.8999C69.0555 12.1638 69.689 12.5334 70.2433 12.9557C70.7713 13.4045 71.22 13.8532 71.5896 14.3548C71.9592 14.8563 72.2231 15.3051 72.4079 15.7538H72.4607V11.6887H75.5755V30.9585H72.9623L72.4871 27.2101H72.3815C72.1703 27.6853 71.88 28.1604 71.5368 28.662C71.1936 29.1635 70.7449 29.6122 70.1906 30.0082C69.6362 30.4306 69.0027 30.7473 68.2372 31.0113C67.5245 31.2753 66.6534 31.4072 65.6767 31.4072ZM66.8645 28.7148C68.1844 28.7148 69.2667 28.4244 70.0586 27.8436C70.8769 27.2629 71.4576 26.4182 71.8272 25.3623C72.1967 24.2801 72.4079 23.013 72.4079 21.5612C72.4079 20.0037 72.2231 18.7103 71.8272 17.628C71.4312 16.5457 70.8241 15.7538 70.0058 15.1995C69.1875 14.6451 68.1316 14.3812 66.8909 14.3812C65.4919 14.3812 64.3832 14.6979 63.5121 15.3315C62.641 15.965 62.0075 16.8097 61.6379 17.892C61.2684 18.9743 61.0572 20.1885 61.0572 21.5348C61.0572 22.9338 61.242 24.1745 61.6379 25.2567C62.0339 26.339 62.6674 27.2101 63.5385 27.8173C64.3832 28.398 65.4919 28.7148 66.8645 28.7148Z" fill="white"/>
<path d="M74.9668 13.9848V11.7146C75.7323 11.7146 76.3394 11.6882 76.7882 11.609C77.2369 11.5298 77.5801 11.3451 77.8177 11.0283C78.0288 10.7379 78.1872 10.2364 78.24 9.52368C78.2928 8.83736 78.3456 7.88705 78.3456 6.72559H80.9589V11.6882H85.42V13.9584H74.9668V13.9848ZM81.1173 30.9844C79.9822 30.9844 79.1639 30.6677 78.6888 30.0342C78.2136 29.4006 77.9761 28.5295 77.9761 27.4208V13.536H80.9061V28.5031H85.42V30.958H81.1173V30.9844Z" fill="white"/>
<path d="M93.2861 31.4072C91.5175 31.4072 90.0656 30.9849 88.9305 30.1138C87.7955 29.2427 86.9508 28.0812 86.3964 26.5766C85.8421 25.0984 85.5781 23.4089 85.5781 21.5084C85.5781 19.555 85.8685 17.8392 86.4228 16.3346C87.0036 14.8563 87.8483 13.6685 89.0097 12.7973C90.1712 11.9262 91.5966 11.5039 93.2861 11.5039C94.2891 11.5039 95.1602 11.6359 95.9258 11.8999C96.6649 12.1638 97.2984 12.5334 97.8527 12.9557C98.3807 13.4045 98.8294 13.8532 99.199 14.3548C99.5685 14.8563 99.8325 15.3051 100.017 15.7538H100.07V11.6887H103.185V30.9585H100.572L100.096 27.2101H99.9909C99.7797 27.6853 99.4893 28.1604 99.1462 28.662C98.803 29.1635 98.3543 29.6122 97.7999 30.0082C97.2456 30.4306 96.6121 30.7473 95.8465 31.0113C95.1338 31.2753 94.2627 31.4072 93.2861 31.4072ZM94.4739 28.7148C95.7938 28.7148 96.876 28.4244 97.6679 27.8436C98.4863 27.2629 99.067 26.4182 99.4366 25.3623C99.8061 24.2801 100.017 23.013 100.017 21.5612C100.017 20.0037 99.8325 18.7103 99.4366 17.628C99.0406 16.5457 98.4335 15.7538 97.6152 15.1995C96.7968 14.6451 95.741 14.3812 94.5003 14.3812C93.1013 14.3812 91.9926 14.6979 91.1215 15.3315C90.2504 15.965 89.6169 16.8097 89.2473 17.892C88.8777 18.9743 88.6666 20.1885 88.6666 21.5348C88.6666 22.9338 88.8513 24.1745 89.2473 25.2567C89.6433 26.339 90.2768 27.2101 91.1479 27.8173C91.9926 28.398 93.1277 28.7148 94.4739 28.7148Z" fill="white"/>
<path d="M103.898 30.9847V11.7148H106.749L106.881 16.4927H106.987C107.04 16.2815 107.198 15.912 107.436 15.384C107.673 14.8561 108.016 14.3282 108.465 13.7474C108.914 13.1667 109.521 12.6915 110.287 12.2956C111.052 11.8996 112.002 11.7148 113.164 11.7148C114.352 11.7148 115.355 11.9524 116.094 12.4012C116.859 12.8499 117.44 13.457 117.836 14.1698C118.258 14.9089 118.575 15.6744 118.786 16.4927H118.892C118.945 16.2287 119.103 15.8592 119.367 15.3576C119.631 14.8561 120.001 14.3282 120.502 13.7474C121.004 13.1667 121.664 12.6915 122.456 12.2956C123.274 11.8996 124.251 11.7148 125.412 11.7148C126.653 11.7148 127.656 11.9524 128.474 12.454C129.292 12.9555 129.926 13.589 130.401 14.4073C130.876 15.2256 131.219 16.0703 131.431 16.9414C131.642 17.8389 131.774 18.6837 131.826 19.502C131.879 20.3203 131.932 20.9802 131.932 21.4817V30.9847H128.949V21.4553C128.949 20.9274 128.923 20.2675 128.87 19.502C128.817 18.7364 128.659 17.9445 128.395 17.179C128.131 16.4135 127.682 15.7536 127.101 15.2256C126.494 14.6977 125.65 14.4337 124.541 14.4337C123.353 14.4337 122.35 14.7769 121.584 15.4632C120.819 16.1495 120.238 17.0734 119.895 18.1821C119.552 19.2908 119.367 20.505 119.367 21.7985V30.9847H116.437V21.4553C116.437 20.9274 116.411 20.2675 116.331 19.502C116.279 18.7364 116.12 17.9445 115.856 17.179C115.592 16.4135 115.17 15.7536 114.589 15.2256C113.982 14.6977 113.137 14.4337 112.029 14.4337C110.788 14.4337 109.811 14.7769 109.046 15.4632C108.28 16.1495 107.726 17.0734 107.383 18.1821C107.04 19.2908 106.855 20.505 106.855 21.7985V30.9847H103.898Z" fill="white"/>
<path d="M135.074 8.81111C134.282 8.81111 133.754 8.59994 133.463 8.20399C133.173 7.78163 133.041 7.33288 133.041 6.77854C133.041 6.277 133.173 5.82825 133.463 5.4323C133.754 5.03634 134.282 4.85156 135.074 4.85156C135.865 4.85156 136.393 5.03634 136.631 5.4323C136.895 5.82825 137.001 6.277 137.001 6.77854C137.001 7.30648 136.869 7.78163 136.631 8.20399C136.393 8.59994 135.865 8.81111 135.074 8.81111ZM133.516 30.9846V11.7148H136.605V30.9846H133.516Z" fill="white"/>
</svg>
