<svg width="31" height="28" viewBox="0 0 31 28" fill="none" xmlns="http://www.w3.org/2000/svg">
<path d="M22.0554 1.5H2.30652C1.67957 1.5 1.30732 2.16614 1.60121 2.71472L7.71396 13.3141C7.96866 13.7451 8.41928 13.9998 8.90908 13.9998H28.6384C29.2654 13.9998 29.6376 13.3337 29.3437 12.7851L23.2506 2.18573C23.0155 1.77429 22.5648 1.5 22.0554 1.5Z" stroke="white" stroke-width="2" stroke-miterlimit="10"/>
<path d="M22.075 7.71094H2.30652C1.67957 7.71094 1.30732 8.37707 1.60121 8.92565L7.71396 19.525C7.96866 19.956 8.41928 20.2107 8.90908 20.2107H28.6384C29.2654 20.2107 29.6376 19.5446 29.3437 18.996L23.2506 8.39666C23.0155 7.98523 22.5648 7.71094 22.075 7.71094Z" stroke="white" stroke-width="2" stroke-miterlimit="10"/>
<path d="M22.0339 14H2.28504C1.65809 14 1.28584 14.6661 1.57972 15.2147L7.69247 25.8141C7.94717 26.2451 8.39779 26.4998 8.8876 26.4998H28.6169C29.2439 26.4998 29.6161 25.8337 29.3222 25.2851L23.2291 14.6857C22.994 14.2743 22.5433 14 22.0339 14Z" stroke="white" stroke-width="2" stroke-miterlimit="10"/>
</svg>
