<svg width="32" height="28" viewBox="0 0 32 28" fill="none" xmlns="http://www.w3.org/2000/svg">
<path d="M22.5779 1.5H2.82898C2.20203 1.5 1.82978 2.16614 2.12367 2.71472L8.23642 13.3141C8.49112 13.7451 8.94174 13.9998 9.43154 13.9998H29.1609C29.7878 13.9998 30.1601 13.3337 29.8662 12.7851L23.773 2.18573C23.5379 1.77429 23.0873 1.5 22.5779 1.5Z" stroke="#005458" stroke-width="2.6397" stroke-miterlimit="10"/>
<path d="M22.5975 7.71094H2.82898C2.20203 7.71094 1.82978 8.37707 2.12367 8.92565L8.23642 19.525C8.49112 19.956 8.94174 20.2107 9.43154 20.2107H29.1609C29.7878 20.2107 30.1601 19.5446 29.8662 18.996L23.773 8.39666C23.5379 7.98523 23.0873 7.71094 22.5975 7.71094Z" stroke="#005458" stroke-width="2.6397" stroke-miterlimit="10"/>
<path d="M22.5564 14H2.8075C2.18055 14 1.8083 14.6661 2.10218 15.2147L8.21494 25.8141C8.46963 26.2451 8.92026 26.4998 9.41006 26.4998H29.1394C29.7663 26.4998 30.1386 25.8337 29.8447 25.2851L23.7515 14.6857C23.5164 14.2743 23.0658 14 22.5564 14Z" stroke="#005458" stroke-width="2.6397" stroke-miterlimit="10"/>
</svg>
